<svg xmlns="http://www.w3.org/2000/svg" viewBox="0 0 62 43"><defs><style>.cls-1{fill:#fff;fill-rule:evenodd}</style></defs><path id="box-white-1.svg" class="cls-1" d="M963.9 3856.24v25.42l20.341-3.84v-12.39a.873.873 0 0 1 .972-.86l2.5.39a.867.867 0 0 1 .773.86v14.39a.873.873 0 0 1-.689.85l-22.267 4.76a7.816 7.816 0 0 1-3.266.01l-22.028-4.61a.864.864 0 0 1-.692-.83l-.38-14.61a.871.871 0 0 1 .8-.89l18.711-1.63a.881.881 0 0 0 .731-.54l2.818-6.81a.873.873 0 0 1 1.676.33zm-24.946-8.33l-5.872 12.49a.877.877 0 0 0 .878 1.24l22.051-2.22a.877.877 0 0 0 .71-.51l7.1-15.91-24.23 4.43a.873.873 0 0 0-.638.48zm24.862-4.91l7.508 16.4a.879.879 0 0 0 .724.51l22.01 1.76a.866.866 0 0 0 .863-1.22l-5.74-12.53a.863.863 0 0 0-.639-.49z" transform="translate(-933 -3843)"/></svg>