<svg xmlns="http://www.w3.org/2000/svg" viewBox="0 0 65.03 49"><defs><style>.cls-1{fill:#fff;fill-rule:evenodd}</style></defs><path id="clock-white-1.svg" class="cls-1" d="M1332.31 3853.6a1.183 1.183 0 0 0 1.67 0l1.67-1.65a1.142 1.142 0 0 0 0-1.65l-3.78-3.74a1.171 1.171 0 0 0-1.66 0l-1.67 1.65a1.142 1.142 0 0 0 0 1.65l.16.16-1.18 1.16a20.788 20.788 0 0 0-10.48-4.31v-2.11h1.29a1.171 1.171 0 0 0 1.17-1.17v-3.43a1.163 1.163 0 0 0-1.17-1.16h-7.5a1.169 1.169 0 0 0-1.17 1.16v3.43a1.171 1.171 0 0 0 1.17 1.17h1.29v2.11a20.929 20.929 0 0 0-10.48 4.31l-1.18-1.16.16-.16a1.142 1.142 0 0 0 0-1.65l-1.67-1.65a1.171 1.171 0 0 0-1.66 0l-3.78 3.74a1.142 1.142 0 0 0 0 1.65l1.67 1.65a1.183 1.183 0 0 0 1.67 0l.16-.16 1.17 1.16a20.4 20.4 0 0 0-4.47 12.75 20.871 20.871 0 0 0 41.74 0 20.456 20.456 0 0 0-4.47-12.75l1.17-1.16zm-17.73 29.62a15.856 15.856 0 1 1 16.03-15.85 15.964 15.964 0 0 1-16.03 15.85zm-35.11-10.32a2.045 2.045 0 1 0 0 4.09h11.23a2.118 2.118 0 0 0 .62-.1 24.856 24.856 0 0 1-1.28-4h-10.57v.01zm11.84-15.02a2.057 2.057 0 0 0-.61-.11h-17.63a2.045 2.045 0 1 0 0 4.09h16.96a23.048 23.048 0 0 1 1.28-3.98zm-1.9 9.49c0-.69.04-1.36.1-2.03h-13.56a2.055 2.055 0 0 0-2.07 2.04 2.077 2.077 0 0 0 2.07 2.05h13.54c-.04-.68-.08-1.36-.08-2.06zm35.24-5.9a1.27 1.27 0 0 0-1.66-.49l-7.22 3.5a3.249 3.249 0 0 0-2.83.19 3.127 3.127 0 0 0-1.12 4.31 3.2 3.2 0 0 0 4.35 1.11 3.141 3.141 0 0 0 1.53-2.35l6.58-4.58a1.248 1.248 0 0 0 .37-1.69zm-8.74 6.24a1.389 1.389 0 0 1-2.69-.69 1.412 1.412 0 0 1 1.69-.99 1.379 1.379 0 0 1 1 1.68zm3.18-8.21a1.306 1.306 0 0 0 1.78-.49 1.266 1.266 0 0 0-.5-1.75 1.294 1.294 0 0 0-1.76 1.78 1.627 1.627 0 0 0 .48.46zm-4.59-1.19a1.287 1.287 0 1 0-1.13-.63 1.261 1.261 0 0 0 1.13.63zm.17 18.14a1.3 1.3 0 0 0-1.12 1.94 1.3 1.3 0 1 0 1.12-1.94zm4.57-1.25a1.258 1.258 0 0 0-.46 1.75 1.3 1.3 0 0 0 1.79.45 1.272 1.272 0 0 0 .46-1.76 1.332 1.332 0 0 0-1.79-.44zm5.09-3.83a1.305 1.305 0 0 0-1.77.49 1.292 1.292 0 0 0 .01 1.29 1.25 1.25 0 0 0 .48.46 1.306 1.306 0 0 0 1.78-.49 1.274 1.274 0 0 0-.5-1.75zm-18.93-3.88a1.3 1.3 0 0 0-2.6.02 1.248 1.248 0 0 0 .17.64 1.31 1.31 0 0 0 1.14.63 1.274 1.274 0 0 0 1.29-1.29zm-.49 4.06a1.272 1.272 0 0 0-.46 1.76 1.3 1.3 0 1 0 .46-1.76zm18.84-4.25a1.224 1.224 0 0 0 .18.65 1.332 1.332 0 0 0 1.14.63 1.285 1.285 0 1 0-1.32-1.28zm-18.94-3.87a1.3 1.3 0 0 0 1.78-.48 1.294 1.294 0 0 0-.51-1.76 1.314 1.314 0 0 0-1.77.49 1.292 1.292 0 0 0 .01 1.29 1.278 1.278 0 0 0 .49.46zm5.09-3.84a.01.01 0 0 0 .01-.01c.01 0 .01 0 .01-.01h.02a1.286 1.286 0 0 0 .45-1.76 1.311 1.311 0 0 0-1.79-.46.01.01 0 0 0-.01.01.077.077 0 0 1-.03.02 1.255 1.255 0 0 0-.45 1.75 1.315 1.315 0 0 0 1.79.46zm.17 15.7a1.292 1.292 0 0 0-1.77.49 1.267 1.267 0 0 0 .01 1.29 1.379 1.379 0 0 0 .48.48 1.328 1.328 0 0 0 1.77-.49 1.283 1.283 0 0 0-.49-1.77z" transform="translate(-1271 -3839)"/></svg>