<svg xmlns="http://www.w3.org/2000/svg" viewBox="0 0 45 54"><defs><style>.cls-1{fill:#fff;fill-rule:evenodd}</style></defs><path id="man-white-1.svg" class="cls-1" d="M621.968 3851.27a9.7 9.7 0 0 0 .4-1.51c1.565-9.53-3.066-9.86-3.066-9.86a7.27 7.27 0 0 0-2.794-2.63 9.419 9.419 0 0 0-5.739-1.23 8.5 8.5 0 0 0-2.283.44 10.1 10.1 0 0 0-2.511 1.3 12.887 12.887 0 0 0-2.588 2.17 10.459 10.459 0 0 0-2.793 4.96 10.894 10.894 0 0 0 .021 4.85 8.854 8.854 0 0 0 .4 1.51c-.924-.08-2.022.46-.99 4.14.74 2.69 1.435 3.44 1.968 3.49a11.391 11.391 0 0 0 6.936 8.7 7.531 7.531 0 0 0 5.087-.02 11.561 11.561 0 0 0 6.957-8.68c.533-.05 1.229-.81 1.979-3.49 1.038-3.68-.06-4.22-.984-4.14zm7.751 20.13a34.777 34.777 0 0 1-10.229-4.72l-3.577 11.45-.673 2.16-.011-.04-.587 1.83-1.892-5.42c4.642-6.56-.935-6.49-1.25-6.48-.315-.01-5.892-.08-1.25 6.48l-1.892 5.42-.587-1.83-.011.04-.673-2.16-3.577-11.45a34.777 34.777 0 0 1-10.229 4.72c-4.207 1.08-4.414 6-4.24 8.44-.022 0 .228 3.3.468 4.75 0 0 8.218 5.4 21.98 5.41s21.981-5.41 21.981-5.41c.25-1.45.489-4.75.489-4.75.174-2.43-.033-7.35-4.24-8.44z" transform="translate(-589 -3836)"/></svg>